<svg xmlns="http://www.w3.org/2000/svg" viewBox="0 0 256 256" focusable="false" color="rgb(102, 102, 255)" style="user-select: none; width: 100%; height: 100%; display: inline-block; fill: rgb(102, 102, 255); color: rgb(102, 102, 255); flex-shrink: 0;"><g color="rgb(102, 102, 255)" weight="regular"><path d="M224,200h-8V40a8,8,0,0,0-8-8H152a8,8,0,0,0-8,8V80H96a8,8,0,0,0-8,8v40H48a8,8,0,0,0-8,8v64H32a8,8,0,0,0,0,16H224a8,8,0,0,0,0-16ZM160,48h40V200H160ZM104,96h40V200H104ZM56,144H88v56H56Z"></path></g></svg>